<svg xmlns="http://www.w3.org/2000/svg" width="143" height="35" fill="none"><path fill="#000" d="M.512 34V.4h14.304c2.208 0 4.064.32 5.568.96 1.536.64 2.688 1.6 3.456 2.88.768 1.248 1.152 2.768 1.152 4.56 0 1.856-.496 3.424-1.488 4.704-.96 1.28-2.336 2.16-4.128 2.64v-.96c1.472.32 2.768.896 3.888 1.728a8.142 8.142 0 0 1 2.592 3.024c.608 1.184.912 2.544.912 4.08 0 1.632-.272 3.072-.816 4.32a7.732 7.732 0 0 1-2.304 3.12c-.992.832-2.192 1.472-3.6 1.92-1.376.416-2.944.624-4.704.624H.512Zm6.048-5.616h8.448c1.76 0 3.12-.384 4.08-1.152.992-.8 1.488-1.936 1.488-3.408 0-.896-.24-1.664-.72-2.304-.48-.64-1.152-1.12-2.016-1.44-.864-.352-1.888-.528-3.072-.528H6.56v8.832Zm0-14.208h7.728c.896 0 1.696-.176 2.4-.528.704-.352 1.248-.832 1.632-1.44.384-.608.576-1.312.576-2.112 0-1.312-.448-2.32-1.344-3.024-.864-.704-2.128-1.056-3.792-1.056h-7.2v8.16ZM30.103 34V8.704h5.76l.096 8.064-.768-1.824a9.002 9.002 0 0 1 1.824-3.456c.864-1.024 1.856-1.824 2.976-2.4 1.152-.608 2.336-.912 3.552-.912.544 0 1.056.048 1.536.144.512.096.928.208 1.248.336l-1.536 6.432a5.1 5.1 0 0 0-1.344-.432 5.75 5.75 0 0 0-1.488-.192c-.832 0-1.616.16-2.352.48a5.648 5.648 0 0 0-1.872 1.248 6.628 6.628 0 0 0-1.248 1.92c-.32.704-.48 1.488-.48 2.352V34h-5.904Zm28.58.48c-2.655 0-5.007-.544-7.055-1.632-2.016-1.12-3.6-2.64-4.752-4.56-1.12-1.952-1.68-4.192-1.68-6.72 0-1.984.32-3.792.96-5.424.64-1.632 1.536-3.04 2.688-4.224a11.583 11.583 0 0 1 4.08-2.784c1.6-.672 3.328-1.008 5.184-1.008 1.696 0 3.248.32 4.656.96 1.44.64 2.688 1.52 3.744 2.64 1.056 1.088 1.856 2.4 2.4 3.936.576 1.504.848 3.152.816 4.944l-.048 2.112H49.228l-1.152-4.08h16.656l-.72.816v-1.104c-.096-.96-.416-1.808-.96-2.544a5.429 5.429 0 0 0-2.112-1.776c-.832-.448-1.76-.672-2.784-.672-1.568 0-2.896.304-3.984.912-1.088.576-1.92 1.44-2.496 2.592-.544 1.152-.816 2.576-.816 4.272 0 1.632.336 3.056 1.008 4.272.704 1.216 1.696 2.16 2.976 2.832 1.28.672 2.768 1.008 4.464 1.008 1.184 0 2.272-.192 3.264-.576 1.024-.384 2.112-1.072 3.264-2.064l2.88 4.032c-.864.8-1.856 1.488-2.976 2.064-1.088.544-2.24.976-3.456 1.296-1.216.32-2.416.48-3.6.48Zm25.726 0c-2.656 0-5.008-.544-7.056-1.632-2.016-1.12-3.6-2.64-4.752-4.56-1.12-1.952-1.68-4.192-1.68-6.72 0-1.984.32-3.792.96-5.424.64-1.632 1.536-3.04 2.688-4.224a11.583 11.583 0 0 1 4.08-2.784c1.6-.672 3.328-1.008 5.184-1.008 1.696 0 3.248.32 4.656.96 1.44.64 2.688 1.52 3.744 2.64 1.056 1.088 1.856 2.4 2.4 3.936.576 1.504.848 3.152.816 4.944L95.4 22.72H74.953L73.8 18.64h16.656l-.72.816v-1.104c-.096-.96-.416-1.808-.96-2.544a5.429 5.429 0 0 0-2.112-1.776c-.832-.448-1.76-.672-2.784-.672-1.568 0-2.896.304-3.984.912-1.088.576-1.92 1.44-2.496 2.592-.544 1.152-.816 2.576-.816 4.272 0 1.632.336 3.056 1.008 4.272.704 1.216 1.696 2.16 2.976 2.832 1.28.672 2.768 1.008 4.464 1.008 1.184 0 2.272-.192 3.264-.576 1.024-.384 2.112-1.072 3.264-2.064l2.88 4.032c-.864.8-1.856 1.488-2.976 2.064-1.088.544-2.24.976-3.456 1.296-1.216.32-2.416.48-3.6.48ZM97.222 34v-4.272l13.152-17.28v1.2H97.222V8.704h19.296v4.224L103.75 29.92l-.192-.864h13.296V34H97.222Zm34.324.48c-2.656 0-5.008-.544-7.056-1.632-2.016-1.12-3.6-2.64-4.752-4.56-1.12-1.952-1.68-4.192-1.68-6.72 0-1.984.32-3.792.96-5.424.64-1.632 1.536-3.04 2.688-4.224a11.583 11.583 0 0 1 4.08-2.784c1.6-.672 3.328-1.008 5.184-1.008 1.696 0 3.248.32 4.656.96 1.44.64 2.688 1.52 3.744 2.64 1.056 1.088 1.856 2.4 2.4 3.936.576 1.504.848 3.152.816 4.944l-.048 2.112H122.09l-1.152-4.08h16.656l-.72.816v-1.104c-.096-.96-.416-1.808-.96-2.544a5.429 5.429 0 0 0-2.112-1.776c-.832-.448-1.76-.672-2.784-.672-1.568 0-2.896.304-3.984.912-1.088.576-1.92 1.44-2.496 2.592-.544 1.152-.816 2.576-.816 4.272 0 1.632.336 3.056 1.008 4.272.704 1.216 1.696 2.16 2.976 2.832 1.28.672 2.768 1.008 4.464 1.008 1.184 0 2.272-.192 3.264-.576 1.024-.384 2.112-1.072 3.264-2.064l2.88 4.032c-.864.8-1.856 1.488-2.976 2.064-1.088.544-2.24.976-3.456 1.296-1.216.32-2.416.48-3.6.48Z"/></svg>