<svg xmlns="http://www.w3.org/2000/svg" version="1.1" viewBox="114.5 367.16 796.5 252.54">
<path d="M0 0 C6.09081269 3.48956908 11.10305834 8.79464552 16 13.75 C16.67933594 14.42160156 17.35867188 15.09320313 18.05859375 15.78515625 C18.69925781 16.42839844 19.33992187 17.07164062 20 17.734375 C20.5775 18.31413086 21.155 18.89388672 21.75 19.49121094 C23 21 23 21 23 23 C23.556875 23.23203125 24.11375 23.4640625 24.6875 23.703125 C31.9140241 27.75583784 38.81330585 35.60615442 41.9375 43.3125 C42.10154345 50.36636847 39.16627698 55.22461419 34.40234375 60.25390625 C32.59607306 62.0390972 30.77397174 63.8083928 28.9375 65.5625 C28.01388672 66.47580078 27.09027344 67.38910156 26.13867188 68.33007812 C19.30911088 75 19.30911088 75 17 75 C16.6596875 75.8353125 16.6596875 75.8353125 16.3125 76.6875 C13.26834679 82.05100804 7.87212545 85.92856651 3.28125 89.9375 C-0.83673599 93.66061062 -4.62578439 97.6496519 -8.3515625 101.7578125 C-15.97542605 110.16361077 -15.97542605 110.16361077 -20 113.5 C-22.79876874 115.83230728 -24.79058977 118.12776671 -27 121 C-29.87095473 124.03045221 -32.89683941 126.78657664 -36.0625 129.5 C-39.0941354 132.12287557 -41.56244346 134.80596039 -44 138 C-46.69942533 140.84534021 -49.5122403 143.46591314 -52.5 146 C-56.45398965 149.35490031 -60.05540145 152.82563424 -63.3125 156.875 C-65.74786159 159.846588 -68.49847837 162.2006896 -71.43359375 164.66796875 C-73.56928804 166.60862247 -75.54902685 168.58696618 -77.53515625 170.67578125 C-78.49639404 171.67653687 -78.49639404 171.67653687 -79.47705078 172.69750977 C-80.75796174 174.03855814 -82.02652984 175.39153541 -83.28076172 176.75756836 C-87.65162183 181.30412104 -91.73717633 183.84194015 -98 185 C-105.41292435 184.46087823 -109.95209959 178.94850434 -115 174 C-115.5347998 173.48421387 -116.06959961 172.96842773 -116.62060547 172.43701172 C-118.29667517 170.82009172 -119.96290015 169.19376998 -121.625 167.5625 C-122.15826904 167.04252441 -122.69153809 166.52254883 -123.2409668 165.98681641 C-124.53366771 164.69645234 -125.77220105 163.35226654 -127 162 C-127 161.34 -127 160.68 -127 160 C-127.99 159.67 -128.98 159.34 -130 159 C-130 158.34 -130 157.68 -130 157 C-130.99 156.67 -131.98 156.34 -133 156 C-137.96227697 151.17305786 -142.5825139 146.18333154 -143.5 139.1875 C-143.33581428 134.39874985 -141.12499186 130.56059679 -138 127 C-137.34 127 -136.68 127 -136 127 C-135.73832031 126.39929688 -135.47664063 125.79859375 -135.20703125 125.1796875 C-133.92577201 122.86595723 -132.75192918 121.7454167 -130.6875 120.125 C-128.22532346 118.11422249 -126.16213193 116.11679743 -124.1875 113.625 C-123.465625 112.75875 -122.74375 111.8925 -122 111 C-121.34 111 -120.68 111 -120 111 C-119.731875 110.360625 -119.46375 109.72125 -119.1875 109.0625 C-118 107 -118 107 -115 106 C-114.505 104.515 -114.505 104.515 -114 103 C-112.8908288 101.82360631 -111.77188733 100.65463529 -110.6015625 99.5390625 C-109.36411576 98.34990636 -108.15602542 97.13015647 -106.9609375 95.8984375 C-106.25195312 95.16882813 -105.54296875 94.43921875 -104.8125 93.6875 C-104.13832031 92.99011719 -103.46414062 92.29273438 -102.76953125 91.57421875 C-101 90 -101 90 -99 90 C-98.505 88.515 -98.505 88.515 -98 87 C-97.34 87 -96.68 87 -96 87 C-95.505 85.515 -95.505 85.515 -95 84 C-94.34 84 -93.68 84 -93 84 C-93 83.34 -93 82.68 -93 82 C-92.34 82 -91.68 82 -91 82 C-90.505 80.515 -90.505 80.515 -90 79 C-88.38099045 77.28700157 -86.70313203 75.62938542 -85 74 C-83.93479285 72.93820981 -82.87258795 71.87340206 -81.81286621 70.80613708 C-81.23264206 70.22446777 -80.65241791 69.64279846 -80.05461121 69.04350281 C-79.12555717 68.11209221 -79.12555717 68.11209221 -78.17773438 67.16186523 C-71.40698739 60.37478073 -64.63369505 53.59024223 -57.85895538 46.80714321 C-53.76548462 42.70844223 -49.6729587 38.60880672 -45.58251953 34.50708008 C-41.61729112 30.53098322 -37.64962168 26.55733735 -33.68025208 22.58537483 C-32.17072837 21.07400638 -30.66208373 19.5617594 -29.15434265 18.04861259 C-27.04597737 15.93298271 -24.9344975 13.82050877 -22.82226562 11.70874023 C-21.89321159 10.77429329 -21.89321159 10.77429329 -20.94538879 9.82096863 C-9.34562335 -1.75131471 -9.34562335 -1.75131471 0 0 Z " fill="#5BC787" transform="translate(258,368)"/>
<path d="M0 0 C4.30080951 2.64469033 7.82891701 5.57233695 11.3984375 9.1328125 C11.8782608 9.61072235 12.35808411 10.0886322 12.85244751 10.58102417 C13.85477192 11.58199837 14.85461867 12.58545933 15.85205078 13.59130859 C17.38482899 15.13489832 18.92812456 16.66739926 20.47265625 18.19921875 C21.44855942 19.17644187 22.4238429 20.15428433 23.3984375 21.1328125 C24.72367432 22.46143311 24.72367432 22.46143311 26.07568359 23.81689453 C28 26 28 26 28 28 C28.99 28.33 29.98 28.66 31 29 C31 29.66 31 30.32 31 31 C31.66 31 32.32 31 33 31 C36.36983395 34.98253103 37.54626635 38.3463279 38.3125 43.4609375 C37.11365962 53.20151558 28.82068018 59.73230655 22.24243164 66.2434082 C21.02745045 67.46053765 19.81333625 68.67853307 18.60002136 69.89732361 C15.31573546 73.19126889 12.01914362 76.47263509 8.71987462 79.75156426 C5.26429196 83.18952879 1.81930883 86.63808502 -1.62709045 90.08525085 C-7.41313383 95.86942383 -13.20685507 101.64581375 -19.00561523 107.41723633 C-25.70721133 114.08735477 -32.39826976 120.76789585 -39.08341116 127.45450336 C-46.20764192 134.58008541 -53.33946677 141.69802912 -60.47354817 148.81374717 C-62.52652201 150.86246121 -64.57807345 152.91259049 -66.62931633 154.96303749 C-69.85280083 158.1845115 -73.08134337 161.40083108 -76.31385612 164.61324501 C-77.49871301 165.7922661 -78.68189144 166.97297672 -79.86325455 168.1554985 C-81.47696735 169.77019485 -83.09670472 171.37859794 -84.71812439 172.98554993 C-85.62273879 173.88681264 -86.52735319 174.78807535 -87.45938015 175.71664906 C-91.31691377 179.18356011 -94.55358059 181.43506253 -99.8125 181.5625 C-100.60269531 181.60503906 -101.39289063 181.64757812 -102.20703125 181.69140625 C-111.10992828 179.4874723 -118.22820949 170.07817827 -124.4921875 163.76855469 C-126.25300695 161.99697467 -128.02431724 160.23638919 -129.796875 158.4765625 C-130.93293378 157.33918267 -132.0683723 156.2011829 -133.203125 155.0625 C-133.98759003 154.28410767 -133.98759003 154.28410767 -134.78790283 153.48999023 C-139.5836003 148.63314259 -143.56281652 143.93645483 -144.09375 136.94140625 C-143.80229073 130.90577048 -139.0128228 126.1341172 -135 122 C-133.34466005 120.65263027 -131.67987227 119.31665664 -130 118 C-129.443125 117.2575 -128.88625 116.515 -128.3125 115.75 C-127.879375 115.1725 -127.44625 114.595 -127 114 C-126.34 114 -125.68 114 -125 114 C-125 113.34 -125 112.68 -125 112 C-123.4609375 110.51953125 -123.4609375 110.51953125 -121.375 108.8125 C-118.6203886 106.47980971 -116.16826882 104.16229748 -113.875 101.375 C-111.19001717 98.11518345 -108.28327515 95.65456289 -105 93 C-102.31279024 90.44387364 -99.90251536 87.8800189 -97.5625 85 C-94.93248768 81.92096119 -92.1374966 79.54921599 -89 77 C-86.31279024 74.44387364 -83.90251536 71.8800189 -81.5625 69 C-78.93248768 65.92096119 -76.1374966 63.54921599 -73 61 C-70.33384157 58.46389808 -67.93963757 55.92534121 -65.625 53.0625 C-63.29916919 50.21006599 -60.69388462 47.90893914 -57.84375 45.58984375 C-55.43460957 43.51247054 -53.23422882 41.26415152 -51 39 C-40 28 -40 28 -37.2734375 25.30859375 C-34.96962414 23.06283849 -34.96962414 23.06283849 -33.125 20.5625 C-30.79115858 17.74816182 -28.24196727 15.60232268 -25.390625 13.33203125 C-24.93171875 12.89246094 -24.4728125 12.45289063 -24 12 C-24 11.34 -24 10.68 -24 10 C-22.33779419 8.99260254 -20.66979326 7.99477045 -19 7 C-17.20832471 5.50827035 -15.47234961 3.96913025 -13.74609375 2.40234375 C-9.34946687 -1.12872795 -5.41475055 -1.67645302 0 0 Z " fill="#45CAAB" transform="translate(328,438)"/>
<path d="M0 0 C2.58282176 2.48716169 4.96786397 5.04000764 7 8 C7 8.66 7 9.32 7 10 C7.66 9.319375 8.32 8.63875 9 7.9375 C19.6753928 -2.64767821 28.54951683 -7.89876783 43.9765625 -8.03515625 C51.90165359 -7.81610696 58.91350054 -6.76129587 66 -3 C67.03125 -2.484375 68.0625 -1.96875 69.125 -1.4375 C76.45547364 4.77746678 83.18161915 14.38905812 84.234375 24.1796875 C84.25 26.125 84.25 26.125 84 29 C84.66 29.33 85.32 29.66 86 30 C85.505 73.56 85.505 73.56 85 118 C74.44 118 63.88 118 53 118 C53.01740234 110.17861328 53.01740234 110.17861328 53.03515625 102.19921875 C53.04027154 98.87695186 53.04508594 95.5546899 53.04882812 92.23242188 C53.05478367 86.97028584 53.06179523 81.70816737 53.07543945 76.44604492 C53.08638138 72.19906739 53.09230057 67.95210873 53.09487724 63.70511818 C53.09671126 62.09258541 53.10029222 60.48005356 53.10573006 58.86752892 C54.04540259 41.09190443 54.04540259 41.09190443 48 25 C42.86566495 21.02089033 37.3904766 20.31819508 31 21 C28.23740873 21.80267803 25.64154535 22.86958259 23 24 C21.515 24.495 21.515 24.495 20 25 C16.31272209 30.85626491 15.62702538 37.18324247 15.37890625 43.91796875 C15.34116592 44.81734665 15.3034256 45.71672455 15.26454163 46.64335632 C14.79033176 59.50783431 14.88852092 72.38470223 14.93133545 85.25567627 C14.941767 88.73619966 14.94617447 92.21673094 14.95117188 95.69726562 C14.96173508 102.46486226 14.97868504 109.23242887 15 116 C15.66 116 16.32 116 17 116 C17 116.66 17 117.32 17 118 C5.45 118 -6.1 118 -18 118 C-17.97679687 112.82054687 -17.95359375 107.64109375 -17.9296875 102.3046875 C-17.91945173 98.99608865 -17.90982262 95.6875097 -17.90234375 92.37890625 C-17.89045245 87.14334997 -17.87648434 81.90786455 -17.84912109 76.67236328 C-17.82716769 72.44481766 -17.81538468 68.21734819 -17.81024551 63.98974991 C-17.80658967 62.3880608 -17.79945266 60.78637519 -17.78853989 59.18471909 C-16.89645876 41.92184833 -16.89645876 41.92184833 -22.1875 26.3125 C-27.65138189 21.81997489 -32.56283669 20.4590416 -39.51171875 20.72265625 C-45.31924836 21.36996332 -49.38681317 22.95824772 -53.375 27.3125 C-61.2541878 37.60455561 -59.14254526 52.93199539 -59.09765625 65.265625 C-59.09578621 66.79547072 -59.09436509 68.32531704 -59.09336853 69.85516357 C-59.0895894 73.84004431 -59.07979966 77.82488735 -59.06866455 81.80975342 C-59.05652994 86.61325807 -59.05202623 91.41677548 -59.04621124 96.22029114 C-59.03658445 103.48022014 -59.01739601 110.74006678 -59 118 C-70.55 118 -82.1 118 -94 118 C-93.01 117.505 -93.01 117.505 -92 117 C-92 76.74 -92 36.48 -92 -5 C-87.91255255 -5.81748949 -84.71390095 -6.11712749 -80.60546875 -6.09765625 C-78.80239258 -6.09282227 -78.80239258 -6.09282227 -76.96289062 -6.08789062 C-75.71701172 -6.07951172 -74.47113281 -6.07113281 -73.1875 -6.0625 C-71.92228516 -6.05798828 -70.65707031 -6.05347656 -69.35351562 -6.04882812 C-66.2356289 -6.03706251 -63.11783867 -6.02062272 -60 -6 C-58.61773984 -3.23547967 -58.90474613 -0.9538637 -58.9375 2.125 C-58.94652344 3.22070312 -58.95554687 4.31640625 -58.96484375 5.4453125 C-58.97644531 6.28835938 -58.98804688 7.13140625 -59 8 C-58.525625 7.13375 -58.05125 6.2675 -57.5625 5.375 C-52.58713035 -2.06168326 -43.56253587 -5.64026901 -35.1875 -7.6875 C-22.82292155 -8.89971357 -10.24727217 -7.66589826 0 0 Z " fill="#131312" transform="translate(823,466)"/>
<path d="M0 0 C0.33 0.66 0.66 1.32 1 2 C1.83208984 1.96970703 2.66417969 1.93941406 3.52148438 1.90820312 C18.71141486 1.36837509 33.90334307 0.89086095 49.10375977 0.82275391 C51.0607535 0.81282593 53.01769121 0.79329461 54.97460938 0.7734375 C73.6104124 0.75387235 90.20850056 3.61225049 104.625 16.3125 C110.64534476 23.12499538 115.21944247 29.25312055 118 38 C118.22558594 38.68320312 118.45117188 39.36640625 118.68359375 40.0703125 C122.77351366 54.90684956 120.09302763 72.07857836 112.8125 85.4375 C104.25632931 98.81558045 92.61235602 106.17272079 77.421875 110.2734375 C70.76583011 111.6867073 64.33974007 112.14616332 57.5625 112.09765625 C56.88251953 112.09664917 56.20253906 112.09564209 55.50195312 112.09460449 C53.00128452 112.08943667 50.50064027 112.07547632 48 112.0625 C42.39 112.041875 36.78 112.02125 31 112 C31 130.15 31 148.3 31 167 C31.66 167.33 32.32 167.66 33 168 C21.12 168 9.24 168 -3 168 C-3 113.22 -3 58.44 -3 2 C-2.01 2 -1.02 2 0 2 C0 1.34 0 0.68 0 0 Z M33 30 C33 30.66 33 31.32 33 32 C32.34 32 31.68 32 31 32 C29.81389961 36.67490809 29.85547135 41.20447851 29.8671875 45.9921875 C29.86623077 46.85635284 29.86527405 47.72051819 29.86428833 48.61087036 C29.86360943 50.43475416 29.86544348 52.25864041 29.86962891 54.08251953 C29.87496818 56.85845439 29.8696808 59.63422649 29.86328125 62.41015625 C29.86394234 64.18750035 29.86522413 65.96484436 29.8671875 67.7421875 C29.86516327 68.5653244 29.86313904 69.3884613 29.86105347 70.23654175 C29.87991159 74.92787639 30.22110013 79.37223642 31 84 C35.08327061 84.0590068 39.16642882 84.09392935 43.25 84.125 C44.38953125 84.14175781 45.5290625 84.15851563 46.703125 84.17578125 C58.7581848 84.24427591 69.1899668 83.50616177 79 76 C85.38871211 69.45157008 85.91480008 61.80754225 86 53 C85.13304076 45.45022998 81.74579999 39.87143912 76 35 C66.2958293 29.45210891 56.38554644 29.8597461 45.5 29.9375 C44.29601562 29.94201172 43.09203125 29.94652344 41.8515625 29.95117188 C38.90098927 29.9628805 35.95052141 29.97928005 33 30 Z " fill="#121212" transform="translate(431,416)"/>
<path d="M0 0 C9.375 10.11513158 9.375 10.11513158 9.375 16.5625 C10.035 16.8925 10.695 17.2225 11.375 17.5625 C12.06914206 28.90428537 12.43972335 40.19869796 12.375 51.5625 C12.30046618 65.00653814 12.56040243 78.43492723 12.875 91.875 C12.89900879 92.90181885 12.92301758 93.9286377 12.94775391 94.98657227 C13.0857839 100.84533499 13.22976699 106.70390397 13.375 112.5625 C2.815 112.5625 -7.745 112.5625 -18.625 112.5625 C-18.625 111.2425 -18.625 109.9225 -18.625 108.5625 C-19.285 108.2325 -19.945 107.9025 -20.625 107.5625 C-21.21855614 104.91389573 -21.36709269 102.27052678 -21.625 99.5625 C-22.2540625 100.16578125 -22.883125 100.7690625 -23.53125 101.390625 C-34.08078281 111.24109239 -44.69448074 115.34040932 -59.1875 115.9375 C-69.47194551 115.49119387 -82.08883672 113.09866328 -89.625 105.5625 C-90.26179687 105.29050781 -90.89859375 105.01851562 -91.5546875 104.73828125 C-94.27905107 103.19104835 -95.20165329 101.45352685 -96.75 98.75 C-97.24757813 97.89792969 -97.74515625 97.04585937 -98.2578125 96.16796875 C-100.76085444 91.39788597 -101.8776325 87.99409866 -101.625 82.5625 C-102.285 82.2325 -102.945 81.9025 -103.625 81.5625 C-102.13339987 70.24054471 -100.25590797 60.4152353 -91.26171875 52.4765625 C-80.05116975 44.2124875 -68.05130811 41.66753742 -54.515625 39.62890625 C-52.87787109 39.37947266 -52.87787109 39.37947266 -51.20703125 39.125 C-49.03435173 38.79897072 -46.85988137 38.48459804 -44.68359375 38.18359375 C-33.22593574 36.51700001 -33.22593574 36.51700001 -23.625 30.5625 C-22.35332124 26.0847579 -22.24657036 22.5356048 -23.9375 18.1875 C-28.99966196 13.24306274 -35.29383935 12.41987058 -42.1875 12.1875 C-47.41838496 12.3284742 -51.80336976 13.62380284 -56.625 15.5625 C-57.615 15.8925 -58.605 16.2225 -59.625 16.5625 C-60.615 20.5225 -61.605 24.4825 -62.625 28.5625 C-73.185 28.5625 -83.745 28.5625 -94.625 28.5625 C-96.19347853 20.72010733 -94.18856631 13.52150727 -89.9375 6.75 C-81.94689686 -4.13375256 -70.87496418 -10.40228304 -57.625 -12.4375 C-37.49320456 -14.59989763 -15.75440333 -14.62908881 0 0 Z M-23.21679688 53.56616211 C-29.89723343 57.7629056 -36.40425856 58.9486274 -44.125 60.125 C-57.11584635 61.65377295 -57.11584635 61.65377295 -68.09033203 68.08129883 C-70.2027921 71.23486817 -70.87628769 73.99177834 -70.5625 77.6875 C-69.66805915 81.38452216 -69.03633202 83.6522717 -66.625 86.5625 C-60.95571562 89.93994601 -56.46957938 90.70212952 -49.9375 90.6875 C-48.19919922 90.69136719 -48.19919922 90.69136719 -46.42578125 90.6953125 C-43.72000844 90.88178173 -43.72000844 90.88178173 -42.625 89.5625 C-41.614375 89.48 -40.60375 89.3975 -39.5625 89.3125 C-33.56246041 88.51167336 -28.69023491 85.04741444 -24.75 80.5625 C-20.42010518 74.44970731 -20.36615527 69.53424208 -20.5 62.25 C-20.50902344 61.31865234 -20.51804687 60.38730469 -20.52734375 59.42773438 C-20.55081737 57.1390564 -20.58365271 54.85091328 -20.625 52.5625 C-21.79765052 52.47360777 -21.79765052 52.47360777 -23.21679688 53.56616211 Z " fill="#121212" transform="translate(652.625,471.4375)"/>
<path d="M0 0 C10.23 0 20.46 0 31 0 C32.135613 3.40683899 32.12299963 5.99348592 32.12025452 9.58683777 C32.12110894 10.25910363 32.12196337 10.93136949 32.12284368 11.62400705 C32.12449341 13.88111953 32.11898541 16.13815802 32.11352539 18.39526367 C32.11324338 20.01144916 32.11340152 21.62763478 32.1139679 23.24382019 C32.11425534 27.63607562 32.1083671 32.02830387 32.10139394 36.42055297 C32.09515166 41.00898969 32.09455591 45.597427 32.09336853 50.18586731 C32.0902578 58.8768518 32.08204788 67.56782375 32.07201904 76.25880271 C32.0608499 86.15227363 32.05534543 96.04574514 32.05032361 105.93922079 C32.03986507 126.29282242 32.02152278 146.64640685 32 167 C20.45 167 8.9 167 -3 167 C-2.01 166.67 -1.02 166.34 0 166 C-0.16238096 165.43067812 -0.32476192 164.86135624 -0.49206352 164.27478218 C-1.0072368 161.96759017 -1.12580842 159.96404247 -1.12698364 157.60348511 C-1.12980347 156.72785919 -1.13262329 155.85223328 -1.13552856 154.95007324 C-1.13350433 153.99572388 -1.1314801 153.04137451 -1.12939453 152.05810547 C-1.13202301 150.53910141 -1.13202301 150.53910141 -1.13470459 148.9894104 C-1.13912719 145.61531893 -1.13617367 142.24127959 -1.1328125 138.8671875 C-1.1334878 136.48161815 -1.1344597 134.09604886 -1.13571167 131.71047974 C-1.13719109 126.6714005 -1.13503497 121.6323389 -1.13037109 116.59326172 C-1.12481333 110.29651785 -1.12794936 103.99981758 -1.13382339 97.70307541 C-1.159378 65.12290991 -0.78731864 32.57060104 0 0 Z " fill="#121212" transform="translate(683,417)"/>
<path d="M0 0 C0 54.78 0 109.56 0 166 C-11.55 166 -23.1 166 -35 166 C-34.01 165.67 -33.02 165.34 -32 165 C-32.16238096 164.43109448 -32.32476192 163.86218897 -32.49206352 163.27604389 C-33.00846461 160.9620704 -33.12581097 158.95086838 -33.12698364 156.58329773 C-33.12980347 155.70333633 -33.13262329 154.82337494 -33.13552856 153.91674805 C-33.13350433 152.95768555 -33.1314801 151.99862305 -33.12939453 151.01049805 C-33.13114685 149.9930098 -33.13289917 148.97552155 -33.13470459 147.92720032 C-33.13912595 144.53868936 -33.13617479 141.15023032 -33.1328125 137.76171875 C-33.13348767 135.36896251 -33.13445947 132.97620633 -33.13571167 130.58345032 C-33.1371908 125.5317826 -33.13503531 120.48013247 -33.13037109 115.4284668 C-33.12480391 109.1046444 -33.12795535 102.78086532 -33.13382339 96.4570446 C-33.1584121 64.95850848 -32.8359156 33.48771649 -32 2 C-29.81918203 5.53158496 -29.75297235 8.37258229 -29.75949097 12.47930908 C-29.75778212 13.12792805 -29.75607327 13.77654703 -29.75431263 14.44482112 C-29.75102106 16.61599611 -29.76201571 18.78686134 -29.77294922 20.95800781 C-29.77351341 22.5152282 -29.77319663 24.07244911 -29.77206421 25.62966919 C-29.77148999 29.8566168 -29.78325556 34.08345109 -29.79721212 38.31037235 C-29.80970787 42.7279662 -29.81088907 47.14556259 -29.81326294 51.56317139 C-29.8194811 59.92831473 -29.83589648 68.29340585 -29.85596192 76.65852618 C-29.87831044 86.18200962 -29.88931172 95.70549553 -29.89935279 105.22899866 C-29.92026241 124.81936239 -29.95584743 144.40967607 -30 164 C-21.09 164 -12.18 164 -3 164 C-3 110.54 -3 57.08 -3 2 C-11.91 2 -20.82 2 -30 2 C-29.67 1.34 -29.34 0.68 -29 0 C-24.9170667 -0.1969993 -20.83364734 -0.38095476 -16.75 -0.5625 C-15.59113281 -0.61857422 -14.43226563 -0.67464844 -13.23828125 -0.73242188 C-12.12324219 -0.78076172 -11.00820313 -0.82910156 -9.859375 -0.87890625 C-8.31975098 -0.94960327 -8.31975098 -0.94960327 -6.74902344 -1.02172852 C-4 -1 -4 -1 0 0 Z " fill="#0C0C0B" transform="translate(715,418)"/>
<path d="M0 0 C2.18081797 3.53158496 2.24702765 6.37258229 2.24050903 10.47930908 C2.24221788 11.12792805 2.24392673 11.77654703 2.24568737 12.44482112 C2.24897894 14.61599611 2.23798429 16.78686134 2.22705078 18.95800781 C2.22648659 20.5152282 2.22680337 22.07244911 2.22793579 23.62966919 C2.22851001 27.8566168 2.21674444 32.08345109 2.20278788 36.31037235 C2.19029213 40.7279662 2.18911093 45.14556259 2.18673706 49.56317139 C2.1805189 57.92831473 2.16410352 66.29340585 2.14403808 74.65852618 C2.12168956 84.18200962 2.11068828 93.70549553 2.10064721 103.22899866 C2.07973759 122.81936239 2.04415257 142.40967607 2 162 C11.24 162 20.48 162 30 162 C29.98839844 158.04128906 29.97679687 154.08257813 29.96484375 150.00390625 C29.95705467 146.18807048 29.95097706 142.37223558 29.94506836 138.55639648 C29.94002617 135.89558519 29.93319264 133.23477668 29.92456055 130.57397461 C29.91248991 126.75894484 29.90677071 122.94395156 29.90234375 119.12890625 C29.89718246 117.93100967 29.89202118 116.7331131 29.88670349 115.49891663 C29.88659019 113.84731789 29.88659019 113.84731789 29.88647461 112.16235352 C29.884254 111.18750504 29.88203339 110.21265656 29.87974548 109.20826721 C30 107 30 107 31 106 C33.80976518 105.83982834 36.59773596 105.74049466 39.41015625 105.68359375 C40.67320839 105.6524221 40.67320839 105.6524221 41.96177673 105.62062073 C44.66193179 105.55503188 47.36218717 105.49619724 50.0625 105.4375 C51.88868241 105.39432363 53.71485454 105.35070964 55.54101562 105.30664062 C60.02723992 105.19934106 64.5135655 105.09810034 69 105 C68.505 106.485 68.505 106.485 68 108 C56.45 108 44.9 108 33 108 C33 126.15 33 144.3 33 163 C33.66 163.33 34.32 163.66 35 164 C23.12 164 11.24 164 -1 164 C-1.02254535 142.76470955 -1.04097819 121.52942874 -1.05181217 100.29412937 C-1.05697555 90.43493281 -1.06401905 80.5757442 -1.07543945 70.71655273 C-1.08538501 62.12652183 -1.09185312 53.53649669 -1.09408849 44.94646019 C-1.09539582 40.39518805 -1.09848305 35.84393236 -1.10573006 31.29266548 C-1.11248825 27.01395181 -1.11461737 22.73526147 -1.11310768 18.45654297 C-1.1133841 16.88149323 -1.11539041 15.30644277 -1.11920547 13.73139763 C-1.1241396 11.59035748 -1.12299935 9.44940685 -1.12025452 7.30836487 C-1.12117631 6.10726861 -1.1220981 4.90617235 -1.12304783 3.66867924 C-1 1 -1 1 0 0 Z " fill="#171917" transform="translate(429,420)"/>
<path d="M0 0 C2.01928117 3.35755296 2.24747872 5.90687632 2.24050903 9.79595947 C2.24325836 10.9794397 2.24600769 12.16291992 2.24884033 13.38226318 C2.24164978 14.67698547 2.23445923 15.97170776 2.22705078 17.30566406 C2.22648651 18.68554679 2.22680353 20.06543012 2.22793579 21.4453125 C2.2285097 25.18881053 2.2167492 28.93218044 2.20278788 32.67564869 C2.19028693 36.58875187 2.18911052 40.50185796 2.18673706 44.41497803 C2.18052042 51.82389351 2.16410712 59.23274998 2.14403808 66.64163947 C2.1216848 75.07687178 2.11068709 83.51210691 2.10064721 91.94736147 C2.07974105 109.29827511 2.0445615 126.64913132 2 144 C1.34 144 0.68 144 0 144 C-1.20554235 134.55379155 -1.14495778 125.14778991 -1.1328125 115.64453125 C-1.13382857 113.83408589 -1.13516828 112.0236407 -1.1368103 110.2131958 C-1.13949257 105.40260221 -1.13507898 100.59204121 -1.12857056 95.78145218 C-1.12500044 92.81286777 -1.12338222 89.84428819 -1.12231445 86.8757019 C-1.10933935 57.90708489 -0.90602322 28.95659862 0 0 Z " fill="#040404" transform="translate(683,420)"/>
<path d="M0 0 C4.32844453 2.65489003 7.83445736 5.59721568 11.3984375 9.203125 C12.11817245 9.9271048 12.11817245 9.9271048 12.85244751 10.66571045 C14.36478056 12.18912479 15.86995915 13.71938455 17.375 15.25 C18.40708452 16.29212993 19.43963254 17.33380105 20.47265625 18.375 C22.98714596 20.91138979 25.49527439 23.45396326 28 26 C27.67 26.66 27.34 27.32 27 28 C23.12452876 24.84554667 19.38940904 21.68847454 16 18 C16 17.34 16 16.68 16 16 C14.515 15.505 14.515 15.505 13 15 C9.95433582 12.25147379 7.5588334 9.82622743 6 6 C5.34 6 4.68 6 4 6 C4 5.34 4 4.68 4 4 C-1.5191159 2.04531312 -5.24135404 1.75229338 -11 3 C-12.85801239 4.43691955 -12.85801239 4.43691955 -14 6 C-14.66 6 -15.32 6 -16 6 C-16.24105469 6.57878906 -16.48210937 7.15757812 -16.73046875 7.75390625 C-18.24111986 10.42659668 -19.97544079 11.95394554 -22.3125 13.9375 C-25.69905306 16.82958182 -28.86145377 19.84033284 -32 23 C-49.33333333 40.33333333 -66.66666667 57.66666667 -84 75 C-84 70.82289492 -81.77017068 68.86444351 -79 66 C-77.02043058 64.30911778 -75.02054804 62.64169528 -73 61 C-70.33384157 58.46389808 -67.93963757 55.92534121 -65.625 53.0625 C-63.29916919 50.21006599 -60.69388462 47.90893914 -57.84375 45.58984375 C-55.43460957 43.51247054 -53.23422882 41.26415152 -51 39 C-40 28 -40 28 -37.2734375 25.30859375 C-34.96962414 23.06283849 -34.96962414 23.06283849 -33.125 20.5625 C-30.79115858 17.74816182 -28.24196727 15.60232268 -25.390625 13.33203125 C-24.93171875 12.89246094 -24.4728125 12.45289063 -24 12 C-24 11.34 -24 10.68 -24 10 C-22.33779419 8.99260254 -20.66979326 7.99477045 -19 7 C-17.20832471 5.50827035 -15.47234961 3.96913025 -13.74609375 2.40234375 C-9.34946687 -1.12872795 -5.41475055 -1.67645302 0 0 Z " fill="#4BBB96" transform="translate(328,438)"/>
<path d="M0 0 C3.18811769 3.18811769 3.11550423 6.04866121 3.12442017 10.38670349 C3.12082489 11.11462601 3.11722961 11.84254852 3.11352539 12.5925293 C3.11367142 13.36349945 3.11381744 14.1344696 3.1139679 14.92880249 C3.11327119 17.47730319 3.1054901 20.02573082 3.09765625 22.57421875 C3.09579121 24.34113017 3.09436771 26.1080421 3.09336853 27.87495422 C3.08955012 32.52578153 3.07972558 37.17657761 3.06866455 41.82739258 C3.05843591 46.57307513 3.05386779 51.31876273 3.04882812 56.06445312 C3.03810273 65.37631801 3.02051137 74.68815152 3 84 C11.91 84 20.82 84 30 84 C29.67 84.66 29.34 85.32 29 86 C19.43 86 9.86 86 0 86 C0 57.62 0 29.24 0 0 Z " fill="#040404" transform="translate(805,498)"/>
<path d="M0 0 C10.23 0 20.46 0 31 0 C32.28282363 2.56564725 32.20391953 4.51033069 32.25 7.375 C32.27578125 8.33148438 32.3015625 9.28796875 32.328125 10.2734375 C32 13 32 13 29 17 C28.505 10.565 28.505 10.565 28 4 C15.13 3.505 15.13 3.505 2 3 C2 24.45 2 45.9 2 68 C1.67 68 1.34 68 1 68 C0.20792314 63.81915435 -0.12220437 59.88014108 -0.11352539 55.62744141 C-0.11344986 54.38660797 -0.11337433 53.14577454 -0.11329651 51.86734009 C-0.10819113 50.52874714 -0.10297515 49.19015461 -0.09765625 47.8515625 C-0.09578906 46.47008312 -0.09436658 45.08860308 -0.09336853 43.7071228 C-0.08956702 40.08711897 -0.07975716 36.46715583 -0.06866455 32.84716797 C-0.05839935 29.1468156 -0.05380505 25.44645639 -0.04882812 21.74609375 C-0.03866445 14.49736 -0.01908679 7.24873772 0 0 Z " fill="#080808" transform="translate(732,460)"/>
<path d="M0 0 C0.33 0 0.66 0 1 0 C1.495 36.63 1.495 36.63 2 74 C-8.56 74 -19.12 74 -30 74 C-30 67.07 -30 60.14 -30 53 C-29.67 53 -29.34 53 -29 53 C-29 59.27 -29 65.54 -29 72 C-19.76 72 -10.52 72 -1 72 C-1.00523682 69.85443604 -1.01047363 67.70887207 -1.01586914 65.49829102 C-1.03240625 58.42555261 -1.04347171 51.35281336 -1.05181217 44.28006077 C-1.05704061 39.99000085 -1.06413753 35.69996067 -1.07543945 31.40991211 C-1.08626975 27.273206 -1.09227714 23.13651892 -1.09487724 18.99979973 C-1.09673124 17.41807696 -1.10035136 15.83635529 -1.10573006 14.25464058 C-1.1129424 12.04677162 -1.11399086 9.83898227 -1.11352539 7.63110352 C-1.115746 6.37201675 -1.11796661 5.11292999 -1.12025452 3.81568909 C-1 1 -1 1 0 0 Z " fill="#020201" transform="translate(762,510)"/>
<path d="M0 0 C0.66 0.33 1.32 0.66 2 1 C1.15695313 1.81984375 0.31390625 2.6396875 -0.5546875 3.484375 C-1.66172316 4.57264734 -2.76847939 5.66120398 -3.875 6.75 C-4.43058594 7.28882813 -4.98617187 7.82765625 -5.55859375 8.3828125 C-9.50013018 12.27686054 -11.616524 15.01289709 -12.6875 20.5625 C-12.5341542 28.7511659 -3.4570033 35.68405009 2 41 C3.15276391 42.01599531 4.31773189 43.0184944 5.5 44 C8.48917139 46.52979656 11.26537501 49.1934112 14 52 C15.6454378 53.68762851 17.31288577 55.3540349 19 57 C19.46277344 57.47050781 19.92554688 57.94101562 20.40234375 58.42578125 C23.0901591 60.95674796 24.833868 61.97330021 28.5 62.5625 C33.94813287 61.68690722 36.91383521 59.08616479 40.75 55.25 C41.4925 54.5075 42.235 53.765 43 53 C43.66 53 44.32 53 45 53 C43.63310446 56.15069422 42.14342115 58.00891774 39.5 60.1875 C38.8915625 60.69667969 38.283125 61.20585938 37.65625 61.73046875 C34.86858191 63.86724264 32.84355329 64.26031384 29.375 64.4375 C28.55773437 64.49808594 27.74046875 64.55867187 26.8984375 64.62109375 C17.96062121 62.7058474 10.73248419 53.03858554 4.5078125 46.76855469 C2.74699305 44.99697467 0.97568276 43.23638919 -0.796875 41.4765625 C-1.93293378 40.33918267 -3.0683723 39.2011829 -4.203125 38.0625 C-4.72610168 37.54357178 -5.24907837 37.02464355 -5.78790283 36.48999023 C-10.5836003 31.63314259 -14.56281652 26.93645483 -15.09375 19.94140625 C-14.80201701 13.9001023 -10.01277326 9.13787171 -6 5 C-4.05315617 3.24298448 -2.06412534 1.62181276 0 0 Z " fill="#46B78E" transform="translate(199,555)"/>
<path d="M0 0 C0.99 0.33 1.98 0.66 3 1 C2.16855469 1.81404297 2.16855469 1.81404297 1.3203125 2.64453125 C0.23363281 3.71767578 0.23363281 3.71767578 -0.875 4.8125 C-1.59429687 5.52019531 -2.31359375 6.22789062 -3.0546875 6.95703125 C-6.8880433 10.98282459 -7.72752259 13.82495472 -7.6484375 19.234375 C-6.35737815 24.74082089 -1.98259151 28.22525417 2 32 C2.93959714 32.99802979 3.87764359 33.99752819 4.8125 35 C6.84190442 37.05377798 6.84190442 37.05377798 9.125 38 C11.76902596 39.41014718 12.50614075 41.4305621 14 44 C14.886875 44.886875 15.77375 45.77375 16.6875 46.6875 C19 49 19 49 19 51 C19.59296875 51.268125 20.1859375 51.53625 20.796875 51.8125 C23.00566216 53.00305195 24.45879967 54.26097055 26.25 56 C29.97055522 59.30895367 33.13929856 60.14724536 38 61 C35 63 35 63 31.9375 62.6875 C26.21723724 60.78473477 22.20585419 56.12303849 18 52 C17.4652002 51.48421387 16.93040039 50.96842773 16.37939453 50.43701172 C14.70332483 48.82009172 13.03709985 47.19376998 11.375 45.5625 C10.57509644 44.78253662 10.57509644 44.78253662 9.7590332 43.98681641 C8.46633229 42.69645234 7.22779895 41.35226654 6 40 C6 39.34 6 38.68 6 38 C5.01 37.67 4.02 37.34 3 37 C3 36.34 3 35.68 3 35 C2.01 34.67 1.02 34.34 0 34 C-4.96227697 29.17305786 -9.5825139 24.18333154 -10.5 17.1875 C-10.33581428 12.39874985 -8.12499186 8.56059679 -5 5 C-4.34 5 -3.68 5 -3 5 C-2.690625 4.360625 -2.38125 3.72125 -2.0625 3.0625 C-1 1 -1 1 0 0 Z " fill="#5EB66B" transform="translate(125,490)"/>
<path d="M0 0 C1.4500124 -0.00675191 2.90001356 -0.01691763 4.34997559 -0.03076172 C12.97783045 -0.1069348 21.69633619 -0.14270069 30.0770874 2.17724609 C31.0670874 3.16724609 31.0670874 3.16724609 32.0770874 4.17724609 C6.0070874 3.84724609 -20.0629126 3.51724609 -46.9229126 3.17724609 C-46.5929126 2.51724609 -46.2629126 1.85724609 -45.9229126 1.17724609 C-30.6190407 0.54281877 -15.31768345 0.06347395 0 0 Z " fill="#050404" transform="translate(478.92291259765625,416.82275390625)"/>
<path d="M0 0 C0.33 0 0.66 0 1 0 C1 29.04 1 58.08 1 88 C-9.23 88 -19.46 88 -30 88 C-29.67 87.01 -29.34 86.02 -29 85 C-19.43 85.33 -9.86 85.66 0 86 C0 57.62 0 29.24 0 0 Z " fill="#010101" transform="translate(906,496)"/>
<path d="M0 0 C0.99 0.495 0.99 0.495 2 1 C3.58167209 10.0488987 3.15684637 19.62030494 3.13037109 28.79296875 C3.12500617 30.99746574 3.13035588 33.20175909 3.13671875 35.40625 C3.14894138 54.42679541 3.14894138 54.42679541 2 61 C1.01 61.495 1.01 61.495 0 62 C0 41.54 0 21.08 0 0 Z " fill="#070707" transform="translate(835,514)"/>
<path d="M0 0 C0.33 0 0.66 0 1 0 C2.82414611 26.09622978 3.05211922 51.86336248 2 78 C1.67 78 1.34 78 1 78 C-0.31908501 70.00333239 -0.12621151 61.98493982 -0.09765625 53.90625 C-0.09578842 52.34826707 -0.09436624 50.79028354 -0.09336853 49.2322998 C-0.08957208 45.15529729 -0.0797667 41.07833107 -0.06866455 37.00134277 C-0.05838831 32.83162934 -0.05385766 28.66190998 -0.04882812 24.4921875 C-0.03814154 16.32810845 -0.02110009 8.16405875 0 0 Z " fill="#040404" transform="translate(662,500)"/>
<path d="M0 0 C2.68771538 2.68771538 2.25321857 4.03786897 2.25878906 7.79492188 C2.26509338 9.0095813 2.27139771 10.22424072 2.27789307 11.47570801 C2.2738446 12.79341187 2.26979614 14.11111572 2.265625 15.46875 C2.26697176 16.82873606 2.26891239 18.18872165 2.27142334 19.54870605 C2.27437409 22.40019307 2.27007864 25.25155487 2.26074219 28.10302734 C2.24934754 31.76182777 2.25590729 35.4203348 2.26788712 39.07912445 C2.27510712 41.88777892 2.27281717 44.69636359 2.26763153 47.50502014 C2.26564461 49.51144602 2.27172863 51.5178746 2.27789307 53.52429199 C2.27158875 54.73895142 2.26528442 55.95361084 2.25878906 57.20507812 C2.25719788 58.27826294 2.25560669 59.35144775 2.25396729 60.45715332 C2 63 2 63 0 65 C-1.24611054 51.14335475 -0.91703384 37.39247421 -0.5625 23.5 C-0.50914197 21.21225404 -0.45640313 18.92449356 -0.40429688 16.63671875 C-0.27665986 11.09095831 -0.14141665 5.54542529 0 0 Z " fill="#040403" transform="translate(877,502)"/>
<path d="M0 0 C6.35937649 -0.68136177 8.93169572 0.28881924 13.87304688 4.19091797 C17.42215101 7.20961191 20.72643553 10.43738705 24 13.75 C24.67933594 14.42160156 25.35867188 15.09320313 26.05859375 15.78515625 C26.69925781 16.42839844 27.33992188 17.07164062 28 17.734375 C28.5775 18.31413086 29.155 18.89388672 29.75 19.49121094 C31 21 31 21 31 23 C31.556875 23.23203125 32.11375 23.4640625 32.6875 23.703125 C39.9140241 27.75583784 46.81330585 35.60615442 49.9375 43.3125 C50.03495445 47.50304153 48.49390703 51.12596991 47 55 C46.01 55 45.02 55 44 55 C44.495 54.319375 44.99 53.63875 45.5 52.9375 C47.35871077 49.29752475 47.43343264 47.04537127 47 43 C45.59240659 40.23558031 45.59240659 40.23558031 44 38 C44 37.34 44 36.68 44 36 C43.34 36 42.68 36 42 36 C40.51953125 34.4609375 40.51953125 34.4609375 38.8125 32.375 C35.8899337 28.91212733 32.84169098 26.02489092 29.28515625 23.2265625 C28.86105469 22.82179688 28.43695313 22.41703125 28 22 C28 21.34 28 20.68 28 20 C27.01 19.67 26.02 19.34 25 19 C23.31640625 17.2578125 23.31640625 17.2578125 21.5625 15.125 C19.72221385 12.89360158 18.1139737 11.0837276 15.77734375 9.3671875 C15.19082031 8.91601562 14.60429687 8.46484375 14 8 C14 7.34 14 6.68 14 6 C13.401875 5.71125 12.80375 5.4225 12.1875 5.125 C10 4 10 4 7 2 C4.94290404 1.75944532 4.94290404 1.75944532 2.8125 1.875 C1.554375 1.91625 0.29625 1.9575 -1 2 C-0.67 1.34 -0.34 0.68 0 0 Z " fill="#50B684" transform="translate(250,368)"/>
<path d="M0 0 C0.66 0 1.32 0 2 0 C2.0505939 6.51445205 2.08568856 13.02885368 2.10986328 19.54345703 C2.11993825 21.76092421 2.13359859 23.97837805 2.15087891 26.19580078 C2.17506163 29.37796312 2.18646797 32.55995024 2.1953125 35.7421875 C2.20563507 36.73805878 2.21595764 37.73393005 2.22659302 38.75997925 C2.22674408 39.68078278 2.22689514 40.6015863 2.22705078 41.55029297 C2.231492 42.3630368 2.23593323 43.17578064 2.24050903 44.01315308 C2 46 2 46 0 48 C-0.99 47.67 -1.98 47.34 -3 47 C-2.34 47 -1.68 47 -1 47 C-1.00222061 46.4406778 -1.00444122 45.88135559 -1.00672913 45.30508423 C-1.02880582 39.49799232 -1.04391661 33.69091228 -1.05493164 27.88378906 C-1.05996891 25.71483883 -1.06679891 23.545892 -1.07543945 21.37695312 C-1.08753151 18.26431437 -1.09323428 15.1517204 -1.09765625 12.0390625 C-1.10281754 11.065065 -1.10797882 10.0910675 -1.11329651 9.08755493 C-1.11337204 8.18677216 -1.11344757 7.28598938 -1.11352539 6.35791016 C-1.11685631 5.16544174 -1.11685631 5.16544174 -1.12025452 3.94888306 C-1 2 -1 2 0 0 Z " fill="#191918" transform="translate(732,536)"/>
<path d="M0 0 C0.66 0.33 1.32 0.66 2 1 C-15.16 18.16 -32.32 35.32 -50 53 C-50 48.82289492 -47.77017068 46.86444351 -45 44 C-43.02043058 42.30911778 -41.02054804 40.64169528 -39 39 C-36.33384157 36.46389808 -33.93963757 33.92534121 -31.625 31.0625 C-29.29916919 28.21006599 -26.69388462 25.90893914 -23.84375 23.58984375 C-21.43460957 21.51247054 -19.23422882 19.26415152 -17 17 C-11.33333333 11.33333333 -5.66666667 5.66666667 0 0 Z " fill="#40B48B" transform="translate(294,460)"/>
<path d="M0 0 C0.33 0.66 0.66 1.32 1 2 C0.01 3.485 0.01 3.485 -1 5 C-1.66 5 -2.32 5 -3 5 C-3.24105469 5.58007812 -3.48210937 6.16015625 -3.73046875 6.7578125 C-5.24012437 9.42409659 -6.96682905 10.91173255 -9.3125 12.875 C-12.95488115 16.01278376 -15.92763516 19.29740647 -19 23 C-22.73051699 26.57257171 -26.26463059 29.84851813 -31 32 C-31 31.34 -31 30.68 -31 30 C-29.50390625 28.5625 -29.50390625 28.5625 -27.5625 27 C-24.84811762 24.85474956 -24.84811762 24.85474956 -23 22 C-22.34 22 -21.68 22 -21 22 C-20.731875 21.360625 -20.46375 20.72125 -20.1875 20.0625 C-19 18 -19 18 -16 17 C-15.67 16.01 -15.34 15.02 -15 14 C-13.89019128 12.82293014 -12.77085111 11.65316027 -11.6015625 10.53515625 C-8.93056941 7.97491165 -6.36318524 5.31016166 -3.76953125 2.671875 C-2 1 -2 1 0 0 Z " fill="#60B96B" transform="translate(159,457)"/>
<path d="M0 0 C0.66 0 1.32 0 2 0 C2 2.31 2 4.62 2 7 C11.57 6.67 21.14 6.34 31 6 C31 6.99 31 7.98 31 9 C26.9247366 9.76776475 23.08994553 10.11902034 18.9453125 10.09765625 C17.83671875 10.09443359 16.728125 10.09121094 15.5859375 10.08789062 C14.44382812 10.07951172 13.30171875 10.07113281 12.125 10.0625 C10.9596875 10.05798828 9.794375 10.05347656 8.59375 10.04882812 C5.72911355 10.03708781 2.86458367 10.0206657 0 10 C-0.84676067 6.26798075 -0.95929637 3.73059699 0 0 Z " fill="#080808" transform="translate(558,490)"/>
<path d="M0 0 C2.68084595 2.42125699 5.18081204 4.86075146 7 8 C6.67 8.99 6.34 9.98 6 11 C5.34 9.68 4.68 8.36 4 7 C3.34 7 2.68 7 2 7 C1.29875 6.2575 0.5975 5.515 -0.125 4.75 C-6.72623842 -1.56422805 -13.87301681 -3.05068906 -22.75 -3.5625 C-23.44738281 -3.60568359 -24.14476562 -3.64886719 -24.86328125 -3.69335938 C-26.57531922 -3.79889596 -28.28763561 -3.8998991 -30 -4 C-30 -4.33 -30 -4.66 -30 -5 C-18.96939748 -6.52550886 -9.49841374 -6.47475203 0 0 Z " fill="#0C0C0C" transform="translate(822,465)"/>
<path d="M0 0 C0 0.66 0 1.32 0 2 C-11.88 1.67 -23.76 1.34 -36 1 C-35.67 0.34 -35.34 -0.32 -35 -1 C-7.97836312 -2.65945437 -7.97836312 -2.65945437 0 0 Z " fill="#0A0909" transform="translate(630,460)"/>
<path d="M0 0 C0.33 0.99 0.66 1.98 1 3 C1.99 2.67 2.98 2.34 4 2 C6.28545638 1.98395222 8.57160219 2.03436464 10.85546875 2.12109375 C11.51710526 2.14470474 12.17874176 2.16831573 12.86042786 2.19264221 C14.96968002 2.26909857 17.0785482 2.35319957 19.1875 2.4375 C20.61912196 2.4907388 22.05076254 2.54347907 23.48242188 2.59570312 C26.98851576 2.72468882 30.49430571 2.86053124 34 3 C34 3.66 34 4.32 34 5 C23.11 5 12.22 5 1 5 C0.67 3.35 0.34 1.7 0 0 Z " fill="#030303" transform="translate(460,497)"/>
<path d="M0 0 C0.99 0.33 1.98 0.66 3 1 C3.33 1.99 3.66 2.98 4 4 C3.34 4 2.68 4 2 4 C2 15.88 2 27.76 2 40 C1.67 40 1.34 40 1 40 C-0.78331569 30.73854415 -1.139019 22.08890745 -0.625 12.6875 C-0.56828125 11.45837891 -0.5115625 10.22925781 -0.453125 8.96289062 C-0.31358939 5.97450291 -0.16240804 2.98721673 0 0 Z " fill="#1A1A19" transform="translate(460,444)"/>
<path d="M0 0 C0.99 0.33 1.98 0.66 3 1 C0.07209758 5.02586583 -3.29169987 8.09452928 -7.05078125 11.3046875 C-8.63329028 12.68105808 -10.14197424 14.14197424 -11.625 15.625 C-14.28638002 18.28638002 -17.08208747 20.62495491 -20 23 C-19.34 21.35 -18.68 19.7 -18 18 C-17.34 18 -16.68 18 -16 18 C-16 17.34 -16 16.68 -16 16 C-15.34 16 -14.68 16 -14 16 C-13.67 15.01 -13.34 14.02 -13 13 C-11.37085888 11.27212306 -9.71447619 9.63957189 -8 8 C-6.5598355 6.56516945 -5.1224535 5.12754199 -3.6875 3.6875 C-1.84375 1.84375 -1.84375 1.84375 0 0 Z " fill="#5EBA6F" transform="translate(181,434)"/>
<path d="M0 0 C4.32535166 1.00589574 7.31412296 2.43778213 10.09765625 6.00390625 C11.9441775 10.08863508 11.35035416 14.62446579 11 19 C10.34 19 9.68 19 9 19 C8.67 19.99 8.34 20.98 8 22 C7.01 21.67 6.02 21.34 5 21 C5.66 20.34 6.32 19.68 7 19 C8.31213289 14.37981378 8.51046697 11.00202776 6.3125 6.6875 C4.29285522 4.34034526 2.26875739 2.10670329 0 0 Z " fill="#0B0C0B" transform="translate(622,483)"/>
<path d="M0 0 C-0.73605469 0.44730469 -1.47210937 0.89460938 -2.23046875 1.35546875 C-7.34769131 4.52584838 -11.96203058 7.47257974 -16 12 C-17.33333333 13.33333333 -18.66666667 14.66666667 -20 16 C-18.02734837 8.28872545 -12.48031625 3.85111034 -5.9375 -0.3125 C-3.55437451 -1.15812518 -2.3819215 -0.68833075 0 0 Z " fill="#0C0C0B" transform="translate(783,462)"/>
<path d="M0 0 C4.48008821 0.51201008 6.77853287 1.85710524 10 5 C16.03602305 12.95059695 16.03602305 12.95059695 17 18 C16.34 18.33 15.68 18.66 15 19 C14.32845067 17.71086513 13.66291141 16.41859796 13 15.125 C12.62875 14.40570313 12.2575 13.68640625 11.875 12.9453125 C11 11 11 11 11 9 C10.34 9 9.68 9 9 9 C7.28891311 7.37897032 5.62746694 5.70496537 4 4 C3.236875 3.236875 2.47375 2.47375 1.6875 1.6875 C1.130625 1.130625 0.57375 0.57375 0 0 Z " fill="#0B0B0B" transform="translate(644,467)"/>
<path d="M0 0 C0.99 0.33 1.98 0.66 3 1 C3 1.66 3 2.32 3 3 C3.66 3 4.32 3 5 3 C8.88203178 7.58785574 10.32308608 11.95829026 10 18 C8.5625 21.5625 8.5625 21.5625 7 24 C6.67 23.34 6.34 22.68 6 22 C6.33 21.34 6.66 20.68 7 20 C7.57825746 15.26018474 7.47260429 11.88002177 5.1875 7.625 C3.13863286 5.08582034 3.13863286 5.08582034 1.25 3.25 C0.8375 2.8375 0.425 2.425 0 2 C0 1.34 0 0.68 0 0 Z " fill="#4AB594" transform="translate(356,466)"/>
<path d="M0 0 C0.66 0.33 1.32 0.66 2 1 C-0.69865978 4.59821303 -3.50338455 7.20270764 -7 10 C-7.721875 10.9075 -8.44375 11.815 -9.1875 12.75 C-9.785625 13.4925 -10.38375 14.235 -11 15 C-11.66 15 -12.32 15 -13 15 C-13.33 15.99 -13.66 16.98 -14 18 C-14.66 18 -15.32 18 -16 18 C-14.6415798 14.95667235 -13.11536976 12.87690849 -10.7421875 10.546875 C-10.11699219 9.928125 -9.49179688 9.309375 -8.84765625 8.671875 C-8.19667969 8.03765625 -7.54570312 7.4034375 -6.875 6.75 C-6.21628906 6.1003125 -5.55757812 5.450625 -4.87890625 4.78125 C-3.25703357 3.18288273 -1.6306719 1.58938103 0 0 Z " fill="#5CBC7B" transform="translate(240,375)"/>
<path d="M0 0 C0.33 0.66 0.66 1.32 1 2 C0.01 3.485 0.01 3.485 -1 5 C-1.66 5 -2.32 5 -3 5 C-3.2475 5.598125 -3.495 6.19625 -3.75 6.8125 C-5.16370012 9.28647521 -6.65055383 10.43370255 -9 12 C-9.66 11.34 -10.32 10.68 -11 10 C-9.54474941 8.51780033 -8.085701 7.03932861 -6.625 5.5625 C-5.81289062 4.73878906 -5.00078125 3.91507812 -4.1640625 3.06640625 C-2 1 -2 1 0 0 Z " fill="#65BE73" transform="translate(159,457)"/>
<path d="M0 0 C2.06183633 -0.08150744 4.12461349 -0.1394194 6.1875 -0.1875 C7.33605469 -0.22230469 8.48460937 -0.25710938 9.66796875 -0.29296875 C13.27039199 0.02377421 15.09366839 0.91466602 18 3 C14.98968256 3.93423645 14.13349732 4.04449911 11 3 C9.10787263 2.77820215 7.21115528 2.59385985 5.3125 2.4375 C4.31863281 2.35371094 3.32476563 2.26992188 2.30078125 2.18359375 C1.16189453 2.09271484 1.16189453 2.09271484 0 2 C0 1.34 0 0.68 0 0 Z " fill="#0A0A09" transform="translate(780,484)"/>
<path d="M0 0 C3.62057996 0.24729005 4.77305986 0.74612804 7.23828125 3.50390625 C7.92277344 4.51324219 8.60726562 5.52257812 9.3125 6.5625 C10.00988281 7.57441406 10.70726562 8.58632813 11.42578125 9.62890625 C11.94527344 10.41136719 12.46476563 11.19382812 13 12 C12.34 12.66 11.68 13.32 11 14 C10.54109375 13.40832031 10.0821875 12.81664062 9.609375 12.20703125 C6.43280921 8.11620178 3.25146556 4.03181729 0 0 Z " fill="#0C0C0B" transform="translate(531,431)"/>
<path d="M0 0 C0.99 0.33 1.98 0.66 3 1 C1.625 2.5 1.625 2.5 0 4 C-0.66 4 -1.32 4 -2 4 C-2 4.66 -2 5.32 -2 6 C-3.6222454 7.70993434 -5.29413425 9.37347684 -7 11 C-7.556875 11.598125 -8.11375 12.19625 -8.6875 12.8125 C-10 14 -10 14 -12 14 C-10.41332422 10.09714233 -7.86649519 7.66479018 -4.875 4.75 C-3.96492187 3.85796875 -3.05484375 2.9659375 -2.1171875 2.046875 C-1.41851562 1.37140625 -0.71984375 0.6959375 0 0 Z " fill="#5FBC77" transform="translate(213,402)"/>
<path d="M0 0 C-1.53218685 3.63061667 -3.7183144 5.9863773 -6.5 8.75 C-7.69109375 9.94882812 -7.69109375 9.94882812 -8.90625 11.171875 C-11 13 -11 13 -13 13 C-11.46781315 9.36938333 -9.2816856 7.0136227 -6.5 4.25 C-5.7059375 3.45078125 -4.911875 2.6515625 -4.09375 1.828125 C-2 0 -2 0 0 0 Z " fill="#5FBC75" transform="translate(200,417)"/>
<path d="M0 0 C0 0.99 0 1.98 0 3 C-0.66 3 -1.32 3 -2 3 C-2 3.66 -2 4.32 -2 5 C-5.51858133 8.25494123 -9.15409462 10.55946315 -14 11 C-12.64084464 6.92253393 -10.70703144 6.42960469 -7 4.375 C-3.28283814 2.49255718 -3.28283814 2.49255718 0 0 Z " fill="#0B0C0B" transform="translate(513,489)"/>
<path d="M0 0 C0.66 0.33 1.32 0.66 2 1 C0.92173635 2.27513763 -0.16285519 3.54492569 -1.25 4.8125 C-1.85328125 5.52019531 -2.4565625 6.22789062 -3.078125 6.95703125 C-4.94261479 8.93899906 -6.70818343 10.53474022 -9 12 C-11.25 11.6875 -11.25 11.6875 -13 11 C-12 9 -12 9 -9.75 8.1875 C-6.3591689 6.72327748 -4.49135535 4.69335713 -2 2 C-1.34 1.34 -0.68 0.68 0 0 Z " fill="#0C0B0B" transform="translate(630,568)"/>
<path d="M0 0 C0.33 0.99 0.66 1.98 1 3 C-0.07421875 4.9375 -0.07421875 4.9375 -1.6875 7 C-2.20699219 7.680625 -2.72648438 8.36125 -3.26171875 9.0625 C-5.02302622 11.02566518 -6.84126363 12.49499861 -9 14 C-9 10.26161126 -8.11005385 9.67777231 -5.625 7 C-3.51259272 4.705039 -1.73869403 2.60804104 0 0 Z " fill="#0A0A0A" transform="translate(542,499)"/>
<path d="M0 0 C0.66 0 1.32 0 2 0 C0.53033642 3.39859703 -1.38037514 5.64963709 -4 8.25 C-4.70125 8.95640625 -5.4025 9.6628125 -6.125 10.390625 C-8 12 -8 12 -10 12 C-9.34 10.68 -8.68 9.36 -8 8 C-7.34 8 -6.68 8 -6 8 C-5.34 6.68 -4.68 5.36 -4 4 C-3.34 4 -2.68 4 -2 4 C-1.34 2.68 -0.68 1.36 0 0 Z " fill="#4BBF9C" transform="translate(267,583)"/>
<path d="M0 0 C3.95781786 0.27612683 5.69956508 0.74053348 8.75 3.375 C11 6 11 6 13 9 C12.34 9.66 11.68 10.32 11 11 C10.484375 10.0925 9.96875 9.185 9.4375 8.25 C6.96443733 4.48237384 3.98317039 2.9915852 0 1 C0 0.67 0 0.34 0 0 Z " fill="#0B0B0A" transform="translate(863,485)"/>
<path d="M0 0 C-3.27301919 2.96909598 -5.38065762 3.34354794 -9.75 3.1875 C-10.73484375 3.16042969 -11.7196875 3.13335938 -12.734375 3.10546875 C-13.48203125 3.07066406 -14.2296875 3.03585937 -15 3 C-11.07677056 -0.92322944 -5.25785342 -0.10515707 0 0 Z " fill="#0A0A0A" transform="translate(617,529)"/>
<path d="M0 0 C0 0.99 0 1.98 0 3 C-3.14930893 4.04976964 -5.38814456 4.10131595 -8.6875 4.0625 C-9.68136719 4.05347656 -10.67523438 4.04445313 -11.69921875 4.03515625 C-12.83810547 4.01775391 -12.83810547 4.01775391 -14 4 C-10.85426323 1.90284215 -8.98543749 1.47995441 -5.3125 0.875 C-3.82169922 0.62363281 -3.82169922 0.62363281 -2.30078125 0.3671875 C-1.54152344 0.24601563 -0.78226563 0.12484375 0 0 Z " fill="#0B0B0A" transform="translate(513,522)"/>
<path d="M0 0 C0.99 0.33 1.98 0.66 3 1 C0.61042731 4.24299151 -1.2047869 6.50902342 -5 8 C-5 5 -5 5 -2.5 2.3125 C-1.675 1.549375 -0.85 0.78625 0 0 Z " fill="#64BF75" transform="translate(181,434)"/>
<path d="M0 0 C4.40114397 0.50298788 6.71195019 2.08772731 10 5 C5.66905042 5 3.72965139 4.03435531 0 2 C0 1.34 0 0.68 0 0 Z " fill="#0D0D0C" transform="translate(521,424)"/>
<path d="M0 0 C0 3.58912412 -0.66436554 4.10857029 -3 6.6875 C-3.556875 7.31011719 -4.11375 7.93273437 -4.6875 8.57421875 C-5.120625 9.04472656 -5.55375 9.51523437 -6 10 C-6.66 9.34 -7.32 8.68 -8 8 C-7.25 5.5625 -7.25 5.5625 -6 3 C-4 2.3125 -4 2.3125 -2 2 C-1.34 1.34 -0.68 0.68 0 0 Z " fill="#67CA82" transform="translate(206,412)"/>
<path d="M0 0 C1.98 0.99 1.98 0.99 4 2 C3.67 4.97 3.34 7.94 3 11 C2.34 10.67 1.68 10.34 1 10 C0.5859375 7.71484375 0.5859375 7.71484375 0.375 4.9375 C0.30023437 4.01839844 0.22546875 3.09929688 0.1484375 2.15234375 C0.09945312 1.44207031 0.05046875 0.73179687 0 0 Z " fill="#1E1E1D" transform="translate(631,569)"/>
<path d="M0 0 C3.98175544 2.10148204 6.35039045 4.36905358 9 8 C6 8 6 8 3.375 5.6875 C1 3 1 3 0 0 Z " fill="#0B0C0B" transform="translate(505,448)"/>
<path d="M0 0 C4.2742558 1.5830577 6.26531794 4.50568404 9 8 C8.01 8 7.02 8 6 8 C6 7.34 6 6.68 6 6 C5.01 5.67 4.02 5.34 3 5 C1.3125 3.5625 1.3125 3.5625 0 2 C0 1.34 0 0.68 0 0 Z " fill="#55BD8C" transform="translate(272,382)"/>
<path d="M0 0 C0.66 0 1.32 0 2 0 C0.48328036 4.55015893 -3.16891053 6.50057264 -7 9 C-6.1875 7.0625 -6.1875 7.0625 -5 5 C-4.01 4.67 -3.02 4.34 -2 4 C-0.79117904 1.99983534 -0.79117904 1.99983534 0 0 Z " fill="#48B87C" transform="translate(240,476)"/>
<path d="M0 0 C0 0.66 0 1.32 0 2 C-1.65385233 3.34919532 -3.321702 4.68133728 -5 6 C-5.99 7.485 -5.99 7.485 -7 9 C-7.66 9 -8.32 9 -9 9 C-7.45665977 5.21180126 -4.44676575 0 0 0 Z " fill="#46B67B" transform="translate(256,462)"/>
<path d="M0 0 C0.99 0.33 1.98 0.66 3 1 C4.1577506 4.47325181 4.06866652 7.36067448 4 11 C1.54176828 7.31265242 0.98757384 4.30300029 0 0 Z " fill="#0A0B0A" transform="translate(545,450)"/>
<path d="M0 0 C-1.28519565 2.86697492 -2.57129254 4.97607712 -5 7 C-5.66 7 -6.32 7 -7 7 C-3.86206897 0 -3.86206897 0 0 0 Z " fill="#4AC09D" transform="translate(256,596)"/>
<path d="M0 0 C1.60080151 4.00200378 0.29279692 7.04556236 -1 11 C-1.33 11 -1.66 11 -2 11 C-2.25 3.375 -2.25 3.375 0 0 Z " fill="#090A09" transform="translate(582,541)"/>
<path d="M0 0 C2.75 -0.25 2.75 -0.25 6 0 C8.375 2 8.375 2 10 4 C8.51882199 3.71872579 7.04006751 3.42466268 5.5625 3.125 C4.73878906 2.96257812 3.91507813 2.80015625 3.06640625 2.6328125 C2.38449219 2.42398437 1.70257812 2.21515625 1 2 C0.67 1.34 0.34 0.68 0 0 Z " fill="#090A09" transform="translate(632,462)"/>
<path d="M0 0 C0.99 0.33 1.98 0.66 3 1 C-0.465 3.97 -0.465 3.97 -4 7 C-4 4 -4 4 -2 1.8125 C-1.34 1.214375 -0.68 0.61625 0 0 Z " fill="#5CBD77" transform="translate(221,394)"/>
<path d="M0 0 C3.65316671 1.24976756 4.78065836 1.67098753 7 5 C2.25 4.125 2.25 4.125 0 3 C0 2.01 0 1.02 0 0 Z " fill="#090808" transform="translate(584,557)"/>
<path d="M0 0 C0.33 0 0.66 0 1 0 C2.35384615 7.38461538 2.35384615 7.38461538 0.5625 10.5 C0.046875 10.995 -0.46875 11.49 -1 12 C-1.08159574 7.83861737 -0.98248524 4.0527516 0 0 Z " fill="#060605" transform="translate(762,465)"/>
<path d="M0 0 C3 1 3 1 3 1 Z " fill="#2F312E" transform="translate(596,535)"/>
<path d="" fill="#2D2E2D" transform="translate(0,0)"/>
<path d="M0 0 C2 1 2 1 2 1 Z " fill="#434440" transform="translate(909,583)"/>
<path d="M0 0 C2 1 2 1 2 1 Z " fill="#2E302C" transform="translate(603,560)"/>
<path d="M0 0 C2 1 2 1 2 1 Z " fill="#313130" transform="translate(600,560)"/>
<path d="M0 0 C2 1 2 1 2 1 Z " fill="#2F2E2C" transform="translate(597,560)"/>
<path d="" fill="#2C2C29" transform="translate(0,0)"/>
<path d="M0 0 C2 1 2 1 2 1 Z " fill="#302F2E" transform="translate(604,534)"/>
<path d="M0 0 C2 1 2 1 2 1 Z " fill="#2E2C2B" transform="translate(609,533)"/>
<path d="M0 0 C2 1 2 1 2 1 Z " fill="#302F2D" transform="translate(800,496)"/>
<path d="" fill="#2D2C2B" transform="translate(0,0)"/>
<path d="" fill="#363633" transform="translate(0,0)"/>
<path d="" fill="#363733" transform="translate(0,0)"/>
<path d="M0 0 C2 1 2 1 2 1 Z " fill="#3D3E3B" transform="translate(626,457)"/>
<path d="" fill="#797E71" transform="translate(0,0)"/>
<path d="" fill="#3E3D3B" transform="translate(0,0)"/>
<path d="" fill="#3C3D3B" transform="translate(0,0)"/>
<path d="" fill="#353433" transform="translate(0,0)"/>
<path d="" fill="#373533" transform="translate(0,0)"/>
<path d="" fill="#333531" transform="translate(0,0)"/>
<path d="" fill="#373836" transform="translate(0,0)"/>
<path d="" fill="#363633" transform="translate(0,0)"/>
<path d="" fill="#353330" transform="translate(0,0)"/>
<path d="" fill="#32302F" transform="translate(0,0)"/>
<path d="" fill="#323331" transform="translate(0,0)"/>
<path d="" fill="#312F31" transform="translate(0,0)"/>
<path d="" fill="#333331" transform="translate(0,0)"/>
<path d="" fill="#485550" transform="translate(0,0)"/>
<path d="" fill="#393A38" transform="translate(0,0)"/>
<path d="" fill="#393B37" transform="translate(0,0)"/>
<path d="" fill="#30312E" transform="translate(0,0)"/>
<path d="" fill="#2C2D2D" transform="translate(0,0)"/>
<path d="" fill="#5FC7AA" transform="translate(0,0)"/>
<path d="" fill="#30312F" transform="translate(0,0)"/>
<path d="" fill="#2D2C2B" transform="translate(0,0)"/>
<path d="" fill="#2D2E2D" transform="translate(0,0)"/>
<path d="" fill="#5CC8A9" transform="translate(0,0)"/>
<path d="" fill="#2E2F2C" transform="translate(0,0)"/>
<path d="" fill="#5BD2A6" transform="translate(0,0)"/>
<path d="" fill="#353532" transform="translate(0,0)"/>
<path d="" fill="#2B2B2A" transform="translate(0,0)"/>
<path d="" fill="#353431" transform="translate(0,0)"/>
<path d="" fill="#2B2A29" transform="translate(0,0)"/>
<path d="" fill="#2E2F2C" transform="translate(0,0)"/>
<path d="" fill="#2D2D2C" transform="translate(0,0)"/>
<path d="" fill="#2D302C" transform="translate(0,0)"/>
<path d="" fill="#2C2C2A" transform="translate(0,0)"/>
<path d="" fill="#313230" transform="translate(0,0)"/>
<path d="" fill="#343130" transform="translate(0,0)"/>
<path d="" fill="#3E413F" transform="translate(0,0)"/>
<path d="" fill="#2C2E2B" transform="translate(0,0)"/>
<path d="" fill="#2D2E2D" transform="translate(0,0)"/>
<path d="" fill="#2C2D2C" transform="translate(0,0)"/>
<path d="" fill="#2C2B2B" transform="translate(0,0)"/>
<path d="" fill="#2D2D2C" transform="translate(0,0)"/>
<path d="" fill="#2D2E2D" transform="translate(0,0)"/>
<path d="" fill="#2F2E2C" transform="translate(0,0)"/>
<path d="" fill="#2E302E" transform="translate(0,0)"/>
<path d="" fill="#2D2E2E" transform="translate(0,0)"/>
<path d="" fill="#31322F" transform="translate(0,0)"/>
<path d="" fill="#86CA83" transform="translate(0,0)"/>
<path d="" fill="#383934" transform="translate(0,0)"/>
<path d="" fill="#31342F" transform="translate(0,0)"/>
<path d="" fill="#30312E" transform="translate(0,0)"/>
<path d="" fill="#353332" transform="translate(0,0)"/>
<path d="" fill="#343434" transform="translate(0,0)"/>
<path d="" fill="#3F413E" transform="translate(0,0)"/>
<path d="" fill="#3C3A38" transform="translate(0,0)"/>
<path d="" fill="#3C3C39" transform="translate(0,0)"/>
<path d="" fill="#3B3C38" transform="translate(0,0)"/>
<path d="" fill="#41433E" transform="translate(0,0)"/>
<path d="" fill="#403F3A" transform="translate(0,0)"/>
<path d="" fill="#3E3E39" transform="translate(0,0)"/>
<path d="" fill="#3E3E38" transform="translate(0,0)"/>
<path d="" fill="#3E3F3B" transform="translate(0,0)"/>
<path d="" fill="#80CC83" transform="translate(0,0)"/>
<path d="" fill="#2E2F2E" transform="translate(0,0)"/>
<path d="" fill="#302F2D" transform="translate(0,0)"/>
<path d="" fill="#373637" transform="translate(0,0)"/>
<path d="" fill="#3D3D3A" transform="translate(0,0)"/>
<path d="" fill="#40413E" transform="translate(0,0)"/>
<path d="" fill="#3B3D3A" transform="translate(0,0)"/>
<path d="" fill="#3D423C" transform="translate(0,0)"/>
<path d="" fill="#43423E" transform="translate(0,0)"/>
<path d="" fill="#484944" transform="translate(0,0)"/>
<path d="" fill="#40433E" transform="translate(0,0)"/>
<path d="" fill="#414440" transform="translate(0,0)"/>
<path d="" fill="#7DCC89" transform="translate(0,0)"/>
<path d="" fill="#77CD91" transform="translate(0,0)"/>
</svg>