<svg width="646" height="161" viewBox="0 0 646 161" fill="none" xmlns="http://www.w3.org/2000/svg">
<rect x="40" y="37" width="40" height="96" fill="#EAEAEA"/>
<path d="M93.216 133V37.64H128.8C135.285 37.64 141.003 38.8347 145.952 41.224C150.987 43.528 154.912 46.9413 157.728 51.464C160.544 55.9013 161.952 61.32 161.952 67.72C161.952 74.0347 160.501 79.4533 157.6 83.976C154.784 88.4133 150.901 91.8267 145.952 94.216C141.003 96.6053 135.285 97.8 128.8 97.8H110.624V133H93.216ZM110.624 82.44H129.056C132.213 82.44 134.944 81.8427 137.248 80.648C139.552 79.368 141.344 77.6187 142.624 75.4C143.904 73.1813 144.544 70.6213 144.544 67.72C144.544 64.7333 143.904 62.1733 142.624 60.04C141.344 57.8213 139.552 56.1147 137.248 54.92C134.944 53.64 132.213 53 129.056 53H110.624V82.44ZM190.68 134.536C185.304 134.536 180.611 133.341 176.6 130.952C172.675 128.563 169.645 125.235 167.512 120.968C165.464 116.701 164.44 111.709 164.44 105.992V63.368H181.208V104.584C181.208 107.485 181.763 110.045 182.872 112.264C184.067 114.397 185.731 116.104 187.864 117.384C190.083 118.579 192.557 119.176 195.288 119.176C198.019 119.176 200.451 118.579 202.584 117.384C204.717 116.104 206.381 114.355 207.576 112.136C208.771 109.917 209.368 107.272 209.368 104.2V63.368H226.136V133H210.264V119.304L211.672 121.736C210.051 126.003 207.363 129.203 203.608 131.336C199.939 133.469 195.629 134.536 190.68 134.536ZM259.259 134.536C251.835 134.536 245.35 132.787 239.803 129.288C234.342 125.704 230.587 120.883 228.539 114.824L241.083 108.808C242.875 112.733 245.35 115.805 248.507 118.024C251.75 120.243 255.334 121.352 259.259 121.352C262.331 121.352 264.763 120.669 266.555 119.304C268.347 117.939 269.243 116.147 269.243 113.928C269.243 112.563 268.859 111.453 268.091 110.6C267.408 109.661 266.427 108.893 265.147 108.296C263.952 107.613 262.63 107.059 261.179 106.632L249.787 103.432C243.899 101.725 239.419 99.1227 236.347 95.624C233.36 92.1253 231.867 87.9867 231.867 83.208C231.867 78.9413 232.934 75.2293 235.067 72.072C237.286 68.8293 240.315 66.312 244.155 64.52C248.08 62.728 252.56 61.832 257.595 61.832C264.166 61.832 269.968 63.4107 275.003 66.568C280.038 69.7253 283.622 74.1627 285.755 79.88L272.955 85.896C271.76 82.7387 269.755 80.2213 266.939 78.344C264.123 76.4667 260.966 75.528 257.467 75.528C254.651 75.528 252.432 76.168 250.811 77.448C249.19 78.728 248.379 80.392 248.379 82.44C248.379 83.72 248.72 84.8293 249.403 85.768C250.086 86.7067 251.024 87.4747 252.219 88.072C253.499 88.6693 254.95 89.224 256.571 89.736L267.707 93.064C273.424 94.7707 277.819 97.3307 280.891 100.744C284.048 104.157 285.627 108.339 285.627 113.288C285.627 117.469 284.518 121.181 282.299 124.424C280.08 127.581 277.008 130.056 273.083 131.848C269.158 133.64 264.55 134.536 259.259 134.536ZM289.553 133V36.104H306.321V77.064L304.017 74.632C305.638 70.4507 308.284 67.2933 311.953 65.16C315.708 62.9413 320.06 61.832 325.009 61.832C330.129 61.832 334.652 62.9413 338.577 65.16C342.588 67.3787 345.702 70.4933 347.921 74.504C350.14 78.4293 351.249 82.9947 351.249 88.2V133H334.481V92.168C334.481 89.096 333.884 86.4507 332.689 84.232C331.494 82.0133 329.83 80.3067 327.697 79.112C325.649 77.832 323.217 77.192 320.401 77.192C317.67 77.192 315.238 77.832 313.105 79.112C310.972 80.3067 309.308 82.0133 308.113 84.232C306.918 86.4507 306.321 89.096 306.321 92.168V133H289.553Z" fill="black"/>
<path d="M391.796 134.536C385.823 134.536 380.191 133.469 374.9 131.336C369.695 129.117 365.172 126.003 361.332 121.992C357.577 117.981 354.761 113.245 352.884 107.784L369.14 100.488C371.529 105.693 374.815 109.789 378.996 112.776C383.263 115.763 387.956 117.256 393.076 117.256C395.807 117.256 398.153 116.829 400.116 115.976C402.079 115.123 403.615 113.971 404.724 112.52C405.833 110.984 406.388 109.192 406.388 107.144C406.388 104.925 405.705 103.048 404.34 101.512C402.975 99.8907 400.841 98.6107 397.94 97.672L379.252 91.528C371.657 89.0533 365.94 85.5547 362.1 81.032C358.26 76.424 356.34 70.92 356.34 64.52C356.34 58.888 357.705 53.9387 360.436 49.672C363.252 45.4053 367.135 42.0773 372.084 39.688C377.119 37.2987 382.879 36.104 389.364 36.104C395.081 36.104 400.372 37.0853 405.236 39.048C410.1 41.0107 414.281 43.784 417.78 47.368C421.364 50.952 424.052 55.2613 425.844 60.296L409.716 67.592C407.924 63.1547 405.236 59.6987 401.652 57.224C398.068 54.664 393.972 53.384 389.364 53.384C386.719 53.384 384.372 53.8107 382.324 54.664C380.276 55.5173 378.697 56.7547 377.588 58.376C376.479 59.912 375.924 61.704 375.924 63.752C375.924 65.9707 376.649 67.9333 378.1 69.64C379.551 71.2613 381.727 72.5413 384.628 73.48L402.932 79.368C410.612 81.8427 416.329 85.2987 420.084 89.736C423.924 94.1733 425.844 99.592 425.844 105.992C425.844 111.539 424.393 116.488 421.492 120.84C418.591 125.107 414.58 128.477 409.46 130.952C404.425 133.341 398.537 134.536 391.796 134.536ZM463.279 134.536C455.855 134.536 449.412 132.915 443.951 129.672C438.49 126.344 434.266 121.907 431.279 116.36C428.292 110.813 426.799 104.669 426.799 97.928C426.799 90.9307 428.335 84.7013 431.407 79.24C434.564 73.7787 438.788 69.4693 444.079 66.312C449.37 63.1547 455.343 61.576 461.999 61.576C467.546 61.576 472.452 62.472 476.719 64.264C480.986 65.9707 484.57 68.4027 487.471 71.56C490.458 74.7173 492.719 78.3867 494.255 82.568C495.791 86.664 496.559 91.144 496.559 96.008C496.559 97.3733 496.474 98.7387 496.303 100.104C496.218 101.384 496.004 102.493 495.663 103.432H443.311V89.352H484.783L475.695 96.008C476.548 92.3387 476.506 89.096 475.567 86.28C474.628 83.3787 472.964 81.1173 470.575 79.496C468.271 77.7893 465.412 76.936 461.999 76.936C458.671 76.936 455.812 77.7467 453.423 79.368C451.034 80.9893 449.242 83.3787 448.047 86.536C446.852 89.6933 446.383 93.5333 446.639 98.056C446.298 101.981 446.767 105.437 448.047 108.424C449.327 111.411 451.29 113.757 453.935 115.464C456.58 117.085 459.78 117.896 463.535 117.896C466.948 117.896 469.85 117.213 472.239 115.848C474.714 114.483 476.634 112.605 477.999 110.216L493.359 117.512C491.994 120.925 489.818 123.912 486.831 126.472C483.93 129.032 480.474 131.037 476.463 132.488C472.452 133.853 468.058 134.536 463.279 134.536ZM498.905 133V63.112H516.825V76.936L515.801 73.864C517.422 69.6827 520.025 66.6107 523.609 64.648C527.278 62.6 531.545 61.576 536.409 61.576C541.7 61.576 546.308 62.6853 550.233 64.904C554.244 67.1227 557.358 70.2373 559.577 74.248C561.796 78.1733 562.905 82.7813 562.905 88.072V133H543.705V92.168C543.705 89.4373 543.15 87.0907 542.041 85.128C541.017 83.1653 539.524 81.6293 537.561 80.52C535.684 79.4107 533.465 78.856 530.905 78.856C528.43 78.856 526.212 79.4107 524.249 80.52C522.286 81.6293 520.75 83.1653 519.641 85.128C518.617 87.0907 518.105 89.4373 518.105 92.168V133H498.905ZM599.466 134.536C592.639 134.536 586.538 132.915 581.162 129.672C575.786 126.429 571.519 122.035 568.362 116.488C565.29 110.941 563.754 104.797 563.754 98.056C563.754 91.2293 565.333 85.0853 568.49 79.624C571.647 74.0773 575.914 69.6827 581.29 66.44C586.666 63.1973 592.682 61.576 599.338 61.576C604.458 61.576 608.981 62.5573 612.906 64.52C616.917 66.3973 620.074 69.0853 622.378 72.584L619.434 76.424V36.104H638.634V133H620.714V120.2L622.506 124.168C620.117 127.581 616.874 130.184 612.778 131.976C608.682 133.683 604.245 134.536 599.466 134.536ZM601.77 117.256C605.269 117.256 608.341 116.445 610.986 114.824C613.631 113.203 615.679 110.941 617.13 108.04C618.666 105.139 619.434 101.811 619.434 98.056C619.434 94.3013 618.666 90.9733 617.13 88.072C615.679 85.1707 613.631 82.9093 610.986 81.288C608.341 79.6667 605.269 78.856 601.77 78.856C598.271 78.856 595.114 79.7093 592.298 81.416C589.567 83.0373 587.434 85.2987 585.898 88.2C584.362 91.016 583.594 94.3013 583.594 98.056C583.594 101.811 584.362 105.139 585.898 108.04C587.434 110.941 589.567 113.203 592.298 114.824C595.114 116.445 598.271 117.256 601.77 117.256Z" fill="#FF7733"/>
<rect y="37" width="80" height="50" fill="#FF7733"/>
<rect y="37" width="40" height="96" fill="#B0B0B0"/>
<rect y="37" width="40" height="50" fill="#FFB28C"/>
</svg>
